<svg width="310" height="50" viewBox="0 0 310 50" fill="none" xmlns="http://www.w3.org/2000/svg">
<line x1="204" y1="19" x2="307" y2="19" stroke="#052CC0" stroke-width="2"/>
<line x1="204" y1="47" x2="307" y2="47" stroke="#052CC0" stroke-width="2"/>
<g clip-path="url(#clip0_1_271)">
<path d="M44.1738 19.7112H56.8716C60.4538 19.7112 63.2627 20.769 65.0938 22.5601C66.6005 24.1067 67.4538 26.2223 67.4538 28.7067V28.7867C67.4538 33.4667 64.6449 36.2756 60.6983 37.4134L68.3916 48.2001H62.4449L55.4449 38.2712H49.1783V48.2001H44.1738V19.7112ZM56.5027 33.8312C60.0849 33.8312 62.3649 31.9601 62.3649 29.0712V28.9912C62.3649 25.9379 60.1694 24.2712 56.4627 24.2712H49.1783V33.8356H56.5027V33.8312Z" fill="#003057"/>
<path d="M87.7599 19.5066H92.3999L104.933 48.1999H99.6444L96.7555 41.3199H83.2843L80.3555 48.1999H75.2266L87.7599 19.5066ZM94.9244 36.8844L89.9999 25.4888L85.1155 36.8844H94.9244Z" fill="#003057"/>
<path d="M113.076 19.7112H123.698C132.654 19.7112 138.836 25.8578 138.836 33.8756V33.9556C138.836 41.9734 132.65 48.2001 123.698 48.2001H113.076V19.7112ZM118.081 24.2667V43.6401H123.698C129.681 43.6401 133.587 39.6134 133.587 34.0356V33.9556C133.587 28.3823 129.681 24.2712 123.698 24.2712H118.081V24.2667Z" fill="#003057"/>
<path d="M152.631 19.7112H147.627V48.2001H152.631V19.7112Z" fill="#003057"/>
<path d="M187.593 19.7112L177.664 33.6267L188.002 48.1956H182.099L174.57 37.3334L167.082 48.1956H161.344L171.642 33.7112L161.753 19.7112H167.655L174.735 30.0445L181.855 19.7112H187.593Z" fill="#003057"/>
<path d="M20.8533 42.2044C19.9511 42.2044 19.0933 41.7733 18.5556 41.0311L7.32445 25.4667H0V19.8H8.77333C9.68445 19.8 10.5378 20.2356 11.0711 20.9733L20.2489 33.6889L34.2533 1.69778C34.7067 0.666667 35.7245 0 36.8489 0H54.3556V5.66667H38.7022L23.4489 40.5067C23.04 41.44 22.1644 42.08 21.1511 42.1867C21.0578 42.2 20.9556 42.2044 20.8533 42.2044Z" fill="#00C389"/>
</g>
<path d="M213.325 40.2477C212.086 40.2477 211.033 40.0275 210.166 39.5871C209.312 39.1467 208.576 38.5686 207.957 37.8529L209.794 36.0774C210.29 36.6555 210.84 37.0959 211.446 37.3987C212.065 37.7015 212.746 37.8529 213.49 37.8529C214.329 37.8529 214.962 37.674 215.389 37.3161C215.816 36.9445 216.029 36.449 216.029 35.8297C216.029 35.3479 215.891 34.9557 215.616 34.6529C215.341 34.3501 214.825 34.1299 214.068 33.9922L212.705 33.7858C209.829 33.3316 208.39 31.9346 208.39 29.5948C208.39 28.9479 208.507 28.363 208.741 27.84C208.989 27.317 209.34 26.8697 209.794 26.498C210.248 26.1264 210.792 25.8443 211.425 25.6516C212.072 25.4451 212.802 25.3419 213.614 25.3419C214.701 25.3419 215.651 25.5208 216.463 25.8787C217.275 26.2365 217.97 26.7664 218.548 27.4684L216.69 29.2232C216.332 28.7828 215.898 28.4249 215.389 28.1497C214.88 27.8744 214.24 27.7368 213.469 27.7368C212.685 27.7368 212.093 27.8882 211.694 28.191C211.308 28.48 211.115 28.8929 211.115 29.4297C211.115 29.9802 211.274 30.3862 211.59 30.6477C211.907 30.9092 212.416 31.1019 213.118 31.2258L214.46 31.4735C215.919 31.735 216.992 32.203 217.681 32.8774C218.383 33.538 218.734 34.4671 218.734 35.6645C218.734 36.3527 218.61 36.9789 218.362 37.5432C218.128 38.0937 217.777 38.5755 217.309 38.9884C216.855 39.3875 216.291 39.6972 215.616 39.9174C214.955 40.1376 214.192 40.2477 213.325 40.2477Z" fill="#052CC0"/>
<path d="M230.178 40L229.022 36.3251H223.902L222.766 40H220L224.831 25.5897H228.216L233.006 40H230.178ZM226.503 28.0671H226.4L224.562 33.9922H228.361L226.503 28.0671Z" fill="#052CC0"/>
<path d="M239.053 32.609L237.566 29.6155H237.504V40H234.924V25.5897H237.917L242.253 32.9806L243.739 35.9742H243.801V25.5897H246.382V40H243.388L239.053 32.609Z" fill="#052CC0"/>
<path d="M249.556 25.5897H254.8C255.736 25.5897 256.582 25.7411 257.339 26.0439C258.11 26.3466 258.764 26.8008 259.3 27.4064C259.851 27.9983 260.271 28.7484 260.56 29.6568C260.862 30.5514 261.014 31.5974 261.014 32.7948C261.014 33.9922 260.862 35.0451 260.56 35.9535C260.271 36.8482 259.851 37.5983 259.3 38.2039C258.764 38.7957 258.11 39.243 257.339 39.5458C256.582 39.8486 255.736 40 254.8 40H249.556V25.5897ZM254.8 37.5845C255.818 37.5845 256.623 37.2886 257.215 36.6968C257.821 36.0912 258.124 35.169 258.124 33.9303V31.6593C258.124 30.4206 257.821 29.5054 257.215 28.9135C256.623 28.3079 255.818 28.0051 254.8 28.0051H252.281V37.5845H254.8Z" fill="#052CC0"/>
<path d="M263.583 25.5897H270.252C270.843 25.5897 271.373 25.6791 271.841 25.858C272.323 26.037 272.729 26.2847 273.059 26.6013C273.39 26.9178 273.637 27.3101 273.803 27.778C273.982 28.2322 274.071 28.7346 274.071 29.2851C274.071 29.8357 273.995 30.3036 273.844 30.689C273.706 31.0606 273.514 31.3703 273.266 31.618C273.032 31.8658 272.757 32.0516 272.44 32.1755C272.137 32.2993 271.821 32.3682 271.49 32.3819V32.5058C271.807 32.5058 272.144 32.5677 272.502 32.6916C272.874 32.8155 273.211 33.015 273.514 33.2903C273.83 33.5518 274.092 33.8959 274.298 34.3226C274.505 34.7355 274.608 35.2516 274.608 35.871C274.608 36.449 274.511 36.9927 274.319 37.5019C274.14 37.9974 273.885 38.431 273.555 38.8026C273.225 39.1742 272.832 39.4701 272.378 39.6903C271.924 39.8968 271.428 40 270.892 40H263.583V25.5897ZM266.308 37.6877H270.107C270.63 37.6877 271.036 37.557 271.325 37.2955C271.614 37.0202 271.759 36.6279 271.759 36.1187V35.4168C271.759 34.9075 271.614 34.5153 271.325 34.24C271.036 33.9647 270.63 33.8271 270.107 33.8271H266.308V37.6877ZM266.308 31.5974H269.674C270.169 31.5974 270.554 31.4667 270.83 31.2051C271.105 30.9299 271.243 30.5514 271.243 30.0697V29.4297C271.243 28.9479 271.105 28.5763 270.83 28.3148C270.554 28.0396 270.169 27.9019 269.674 27.9019H266.308V31.5974Z" fill="#052CC0"/>
<path d="M282.723 40.2477C281.773 40.2477 280.913 40.0894 280.142 39.7729C279.372 39.4563 278.711 38.9815 278.16 38.3484C277.624 37.7153 277.204 36.9376 276.901 36.0155C276.598 35.0933 276.447 34.0198 276.447 32.7948C276.447 31.5836 276.598 30.517 276.901 29.5948C277.204 28.6589 277.624 27.8744 278.16 27.2413C278.711 26.6082 279.372 26.1333 280.142 25.8168C280.913 25.5002 281.773 25.3419 282.723 25.3419C283.673 25.3419 284.533 25.5002 285.304 25.8168C286.074 26.1333 286.735 26.6082 287.286 27.2413C287.836 27.8744 288.256 28.6589 288.545 29.5948C288.848 30.517 288.999 31.5836 288.999 32.7948C288.999 34.0198 288.848 35.0933 288.545 36.0155C288.256 36.9376 287.836 37.7153 287.286 38.3484C286.735 38.9815 286.074 39.4563 285.304 39.7729C284.533 40.0894 283.673 40.2477 282.723 40.2477ZM282.723 37.8322C283.755 37.8322 284.574 37.4882 285.18 36.8C285.799 36.1118 286.109 35.1484 286.109 33.9097V31.68C286.109 30.4413 285.799 29.4778 285.18 28.7897C284.574 28.1015 283.755 27.7574 282.723 27.7574C281.691 27.7574 280.865 28.1015 280.246 28.7897C279.64 29.4778 279.337 30.4413 279.337 31.68V33.9097C279.337 35.1484 279.64 36.1118 280.246 36.8C280.865 37.4882 281.691 37.8322 282.723 37.8322Z" fill="#052CC0"/>
<path d="M302.471 40H299.292L295.989 34.4671H295.927L292.665 40H289.692L294.358 32.609L289.898 25.5897H293.078L296.133 30.7097H296.195L299.292 25.5897H302.265L297.764 32.609L302.471 40Z" fill="#052CC0"/>
<defs>
<clipPath id="clip0_1_271">
<rect width="189" height="49" fill="white"/>
</clipPath>
</defs>
</svg>
