<svg width="13" height="13" viewBox="0 0 13 13" fill="none" xmlns="http://www.w3.org/2000/svg">
    <g opacity="0.8">
        <path opacity="0.8"
            d="M8.12498 0.541748H2.16665C1.57081 0.541748 1.08331 1.02925 1.08331 1.62508V8.66675C1.08331 8.96466 1.32706 9.20841 1.62498 9.20841C1.9229 9.20841 2.16665 8.96466 2.16665 8.66675V2.16675C2.16665 1.86883 2.4104 1.62508 2.70831 1.62508H8.12498C8.4229 1.62508 8.66665 1.38133 8.66665 1.08341C8.66665 0.785498 8.4229 0.541748 8.12498 0.541748ZM10.2916 2.70841H4.33331C3.73748 2.70841 3.24998 3.19591 3.24998 3.79175V11.3751C3.24998 11.9709 3.73748 12.4584 4.33331 12.4584H10.2916C10.8875 12.4584 11.375 11.9709 11.375 11.3751V3.79175C11.375 3.19591 10.8875 2.70841 10.2916 2.70841ZM9.74998 11.3751H4.87498C4.57706 11.3751 4.33331 11.1313 4.33331 10.8334V4.33341C4.33331 4.0355 4.57706 3.79175 4.87498 3.79175H9.74998C10.0479 3.79175 10.2916 4.0355 10.2916 4.33341V10.8334C10.2916 11.1313 10.0479 11.3751 9.74998 11.3751Z"
            fill="white" />
    </g>
</svg>
    