<svg width="23" height="23" viewBox="0 0 23 23" fill="none" xmlns="http://www.w3.org/2000/svg">
    <path
        d="M15.9689 8.52087L14.4793 7.03123L11.5 10.0105L8.52072 7.03123L7.03108 8.52087L10.0104 11.5001L7.03108 14.4794L8.52072 15.9691L11.5 12.9898L14.4793 15.9691L15.9689 14.4794L12.9896 11.5001L15.9689 8.52087ZM18.9482 4.05195C14.8442 -0.0520024 8.15576 -0.0520027 4.05181 4.05195C-0.0521453 8.1559 -0.0521456 14.8444 4.05181 18.9483C8.15576 23.0523 14.8442 23.0523 18.9482 18.9483C23.0521 14.8444 23.0521 8.15591 18.9482 4.05195ZM5.54145 17.4587C2.25679 14.174 2.25679 8.82624 5.54145 5.54159C8.8261 2.25694 14.1739 2.25694 17.4586 5.54159C20.7432 8.82624 20.7432 14.174 17.4586 17.4587C14.1739 20.7433 8.8261 20.7433 5.54145 17.4587Z"
        fill="white" />
</svg>
    