<svg width="28" height="28" viewBox="0 0 28 28" fill="none" xmlns="http://www.w3.org/2000/svg">
<g clip-path="url(#clip0_11_355)">
<path d="M14.0003 7.00001C15.2837 7.00001 16.3337 8.05001 16.3337 9.33334C16.3337 10.6167 15.2837 11.6667 14.0003 11.6667C12.717 11.6667 11.667 10.6167 11.667 9.33334C11.667 8.05001 12.717 7.00001 14.0003 7.00001ZM14.0003 18.6667C17.1503 18.6667 20.767 20.1717 21.0003 21H7.00033C7.26866 20.16 10.862 18.6667 14.0003 18.6667ZM14.0003 4.66667C11.422 4.66667 9.33366 6.75501 9.33366 9.33334C9.33366 11.9117 11.422 14 14.0003 14C16.5787 14 18.667 11.9117 18.667 9.33334C18.667 6.75501 16.5787 4.66667 14.0003 4.66667ZM14.0003 16.3333C10.8853 16.3333 4.66699 17.8967 4.66699 21V23.3333H23.3337V21C23.3337 17.8967 17.1153 16.3333 14.0003 16.3333Z" fill="#CED0D6"/>
</g>
<defs>
<clipPath id="clip0_11_355">
<rect width="28" height="28" fill="white"/>
</clipPath>
</defs>
</svg>
