<svg  viewBox="0 0 18 16" fill="none" xmlns="http://www.w3.org/2000/svg">
<path d="M2 16L16 16C17.1 16 18 15.1 18 14L18 10C18 10 17.55 10 17 10C16.45 10 16 10 16 10L16 13C16 13.55 15.55 14 15 14L3 14C2.45 14 2 13.55 2 13L2 3C2 2.45 2.45 2 3 2L8 2C8 2 8 1.83015 8 1.28015C8 0.730152 8 -8.74228e-07 8 -8.74228e-07L2 -1.39876e-06C0.900001 -1.49493e-06 1.32008e-06 0.899998 1.22392e-06 2L1.74846e-07 14C7.86805e-08 15.1 0.9 16 2 16Z" fill="white"/>
<path d="M11 0.999999C11 1.56 11 2 11 2L14.59 2L9 7.59L10.41 9L16 3.41L16 7C16 7 16.45 7 17 7C17.55 7 18 7 18 7L18 0.999998C18 0.449998 17.55 -1.94669e-06 17 -1.99477e-06L11 -6.1196e-07C11 -6.1196e-07 11 0.449999 11 0.999999Z" fill="white"/>
</svg>
