<svg width="16" height="16" viewBox="0 0 20 21" fill="none" xmlns="http://www.w3.org/2000/svg">
<path d="M10 0.719849C4.48 0.719849 0 5.19985 0 10.7198C0 16.2398 4.48 20.7198 10 20.7198C15.52 20.7198 20 16.2398 20 10.7198C20 5.19985 15.52 0.719849 10 0.719849ZM10 18.7198C5.59 18.7198 2 15.1298 2 10.7198C2 6.30985 5.59 2.71985 10 2.71985C14.41 2.71985 18 6.30985 18 10.7198C18 15.1298 14.41 18.7198 10 18.7198ZM14.59 6.29985L8 12.8898L5.41 10.3098L4 11.7198L8 15.7198L16 7.71985L14.59 6.29985Z" fill="#003057"/>
</svg>
